#!OML:ASF G:\JayActor3\Patient Classification 1\Patient 1\Session 5\male.ASF
:FULLY-SPECIFIED
:DEGREES
509
root 33.279 14.966 -6.66511 1.09523 -84.0393 10.9463
lowerback 42.3972 -1.54859 2.68087
upperback 10.2301 -2.28043 -1.28536
thorax -8.78311 -1.5542 -1.71845
lowerneck 3.04718 -0.400301 0.695041
upperneck -27.6744 -0.350994 4.09043
head -9.15005 -1.10712 1.39264
rclavicle 1.59028e-014 2.96189e-014
rhumerus -29.1014 1.56111 -87.2468
rradius 43.3562
rwrist -3.13964
rhand -19.2275 -9.0985
rfingers 7.12502
rthumb 7.08559 -38.9599
lclavicle 1.59028e-014 2.96189e-014
lhumerus -28.0215 -2.05241 82.9125
lradius 41.0971
lwrist 25.924
lhand -18.7939 12.0107
lfingers 7.12502
lthumb 7.50407 41.8576
rfemur -65.3562 -3.82868 24.9005
rtibia 87.6408
rfoot 8.21252 -12.1222
rtoes -9.91273
lfemur -69.4569 9.59295 -23.6961
ltibia 87.1252
lfoot 1.6963 -5.02676
ltoes -20.3534
510
root 33.1846 14.9718 -6.66848 0.641488 -84.0442 11.3782
lowerback 42.473 -1.51007 2.64796
upperback 10.241 -2.25007 -1.2901
thorax -8.79117 -1.5413 -1.71789
lowerneck 3.06801 -0.407435 0.695712
upperneck -27.7085 -0.360071 4.08948
head -9.16594 -1.11247 1.39391
rclavicle 2.76311e-014 1.02374e-014
rhumerus -29.084 1.58615 -87.2881
rradius 43.3368
rwrist -3.0913
rhand -19.2094 -9.06302
rfingers 7.12502
rthumb 7.10305 -38.9238
lclavicle 2.76311e-014 1.02374e-014
lhumerus -28.026 -2.05247 82.9212
lradius 41.1486
lwrist 26.0136
lhand -18.812 12.0415
lfingers 7.12502
lthumb 7.48665 41.889
rfemur -65.0244 -3.91872 25.0088
rtibia 87.7547
rfoot 8.07814 -12.5199
rtoes -9.74188
lfemur -69.9143 9.63537 -24.3565
ltibia 85.3664
lfoot 1.19696 -5.09035
ltoes -20.7016
511
root 33.0899 14.9805 -6.67112 0.191308 -84.0533 11.8233
lowerback 42.5406 -1.47081 2.61454
upperback 10.2473 -2.21844 -1.29503
thorax -8.80193 -1.52758 -1.71795
lowerneck 3.08784 -0.414508 0.701933
upperneck -27.7493 -0.369387 4.08589
head -9.18408 -1.11861 1.3935
rclavicle -2.48481e-014 -2.75317e-014
rhumerus -29.0722 1.61727 -87.3362
rradius 43.3234
rwrist -3.03747
rhand -19.1802 -9.02578
rfingers 7.12502
rthumb 7.13125 -38.8856
lclavicle -2.48481e-014 -2.75317e-014
lhumerus -28.0385 -2.05662 82.9311
lradius 41.192
lwrist 26.1022
lhand -18.8171 12.0673
lfingers 7.12502
lthumb 7.48171 41.915
rfemur -64.6839 -4.01223 25.1168
rtibia 87.8335
rfoot 7.95063 -12.9189
rtoes -9.59153
lfemur -70.2935 9.67456 -24.9987
ltibia 83.4576
lfoot 0.825861 -5.16107
ltoes -21.0565
512
root 32.9947 14.9916 -6.67307 -0.223912 -84.064 12.2536
lowerback 42.592 -1.43138 2.58148
upperback 10.2502 -2.18561 -1.29754
thorax -8.81164 -1.51304 -1.71646
lowerneck 3.10977 -0.420351 0.713003
upperneck -27.7994 -0.378021 4.07638
head -9.20601 -1.12474 1.39041
rclavicle -2.60408e-014 -6.03311e-014
rhumerus -29.0662 1.65836 -87.3892
rradius 43.3179
rwrist -2.9874
rhand -19.1909 -8.94896
rfingers 7.12502
rthumb 7.12088 -38.8092
lclavicle -2.60408e-014 -6.03311e-014
lhumerus -28.0553 -2.06686 82.9455
lradius 41.2206
lwrist 26.1849
lhand -18.8181 12.0963
lfingers 7.12502
lthumb 7.48075 41.944
rfemur -64.3426 -4.10526 25.2209
rtibia 87.8781
rfoot 7.85651 -13.2919
rtoes -9.53377
lfemur -70.5962 9.70742 -25.616
ltibia 81.4069
lfoot 0.577356 -5.25583
ltoes -21.4486
513
root 32.8991 15.0049 -6.67415 -0.639011 -84.076 12.7063
lowerback 42.6192 -1.39242 2.54484
upperback 10.2543 -2.15454 -1.29869
thorax -8.813 -1.49903 -1.71151
lowerneck 3.12872 -0.423605 0.730798
upperneck -27.8575 -0.384598 4.05898
head -9.23038 -1.13023 1.38343
rclavicle -1.13307e-014 -1.17283e-014
rhumerus -29.0562 1.70824 -87.4476
rradius 43.3165
rwrist -2.94249
rhand -19.2119 -8.8662
rfingers 7.12502
rthumb 7.10063 -38.7271
lclavicle -1.13307e-014 -1.17283e-014
lhumerus -28.0664 -2.0771 82.9603
lradius 41.2281
lwrist 26.2653
lhand -18.8063 12.1119
lfingers 7.12502
lthumb 7.49212 41.9592
rfemur -64.0062 -4.19802 25.3101
rtibia 87.8916
rfoot 7.79079 -13.6371
rtoes -9.4627
lfemur -70.8256 9.72952 -26.2089
ltibia 79.2262
lfoot 0.461568 -5.38198
ltoes -21.8527
514
root 32.8031 15.02 -6.67423 -1.04651 -84.0892 13.1737
lowerback 42.6221 -1.35499 2.50497
upperback 10.2584 -2.12606 -1.29735
thorax -8.80724 -1.48593 -1.70168
lowerneck 3.14413 -0.423438 0.752173
upperneck -27.9177 -0.388355 4.03293
head -9.25499 -1.13402 1.37263
rclavicle -9.64106e-015 2.98177e-016
rhumerus -29.0432 1.76505 -87.5077
rradius 43.3166
rwrist -2.89908
rhand -19.2498 -8.75782
rfingers 7.12502
rthumb 7.06403 -38.6199
lclavicle -9.64106e-015 2.98177e-016
lhumerus -28.0751 -2.08304 82.9762
lradius 41.2142
lwrist 26.3326
lhand -18.784 12.1187
lfingers 7.12502
lthumb 7.51362 41.9652
rfemur -63.6781 -4.28703 25.3797
rtibia 87.878
rfoot 7.76133 -13.9333
rtoes -9.41765
lfemur -70.9867 9.74322 -26.778
ltibia 76.9324
lfoot 0.497015 -5.52916
ltoes -22.2464
515
root 32.7063 15.0364 -6.67307 -1.47072 -84.1063 13.6803
lowerback 42.599 -1.31948 2.46283
upperback 10.2616 -2.10037 -1.29586
thorax -8.79512 -1.47375 -1.68986
lowerneck 3.15812 -0.420116 0.771976
upperneck -27.9778 -0.389049 4.0024
head -9.27939 -1.13575 1.36027
rclavicle -1.88845e-014 2.08724e-015
rhumerus -29.0293 1.8257 -87.5699
rradius 43.3193
rwrist -2.8725
rhand -19.2886 -8.6523
rfingers 7.12502
rthumb 7.0266 -38.5157
lclavicle -1.88845e-014 2.08724e-015
lhumerus -28.0859 -2.09289 82.9951
lradius 41.1811
lwrist 26.3738
lhand -18.7676 12.1294
lfingers 7.12502
lthumb 7.52946 41.9753
rfemur -63.3628 -4.37127 25.423
rtibia 87.8448
rfoot 7.76264 -14.1738
rtoes -9.3679
lfemur -71.0846 9.75301 -27.3303
ltibia 74.5461
lfoot 0.690024 -5.68213
ltoes -22.6521
516
root 32.6088 15.0535 -6.67065 -1.90998 -84.13 14.2248
lowerback 42.5526 -1.28454 2.41768
upperback 10.2622 -2.07597 -1.29382
thorax -8.77915 -1.4618 -1.67582
lowerneck 3.17109 -0.414759 0.785796
upperneck -28.0387 -0.388131 3.97038
head -9.30389 -1.13601 1.34829
rclavicle 3.08116e-015 -8.44835e-015
rhumerus -29.014 1.88795 -87.6319
rradius 43.3227
rwrist -2.8635
rhand -19.3148 -8.5614
rfingers 7.12502
rthumb 7.00126 -38.4256
lclavicle 3.08116e-015 -8.44835e-015
lhumerus -28.103 -2.10801 83.0174
lradius 41.135
lwrist 26.3825
lhand -18.761 12.1298
lfingers 7.12502
lthumb 7.53589 41.9755
rfemur -63.0621 -4.44681 25.4393
rtibia 87.7957
rfoot 7.7916 -14.36
rtoes -9.29179
lfemur -71.1306 9.76998 -27.8721
ltibia 72.0925
lfoot 1.05725 -5.8215
ltoes -23.0121
517
root 32.5102 15.0711 -6.66681 -2.36311 -84.1628 14.8037
lowerback 42.4888 -1.25201 2.37422
upperback 10.2584 -2.05338 -1.29489
thorax -8.76347 -1.45028 -1.66546
lowerneck 3.18375 -0.408835 0.796196
upperneck -28.0993 -0.387134 3.93773
head -9.32821 -1.13583 1.33666
rclavicle 1.23246e-014 -1.55052e-014
rhumerus -29.0017 1.95077 -87.6963
rradius 43.3278
rwrist -2.86905
rhand -19.355 -8.45807
rfingers 7.12502
rthumb 6.96249 -38.3236
lclavicle 1.23246e-014 -1.55052e-014
lhumerus -28.1303 -2.13385 83.04
lradius 41.0832
lwrist 26.3555
lhand -18.7602 12.1378
lfingers 7.12502
lthumb 7.53665 41.9835
rfemur -62.7764 -4.51128 25.4273
rtibia 87.7358
rfoot 7.84659 -14.4914
rtoes -9.31564
lfemur -71.134 9.80362 -28.4102
ltibia 69.5992
lfoot 1.62346 -5.92063
ltoes -23.2712
518
root 32.4106 15.089 -6.66148 -2.81877 -84.2073 15.4045
lowerback 42.4126 -1.22081 2.33478
upperback 10.2487 -2.03022 -1.29846
thorax -8.75081 -1.43815 -1.66023
lowerneck 3.19238 -0.404491 0.80081
upperneck -28.158 -0.389011 3.90706
head -9.351 -1.13659 1.32688
rclavicle 1.90833e-014 3.46879e-014
rhumerus -28.9971 2.01248 -87.7597
rradius 43.3448
rwrist -2.89627
rhand -19.4037 -8.35461
rfingers 7.12502
rthumb 6.9155 -38.2217
lclavicle 1.90833e-014 3.46879e-014
lhumerus -28.1681 -2.17174 83.0644
lradius 41.0294
lwrist 26.2911
lhand -18.7615 12.1493
lfingers 7.12502
lthumb 7.53532 41.9951
rfemur -62.5041 -4.5623 25.3889
rtibia 87.6672
rfoot 7.93531 -14.562
rtoes -9.45352
lfemur -71.1051 9.86609 -28.9536
ltibia 67.0906
lfoot 2.39414 -5.98087
ltoes -23.5211
519
root 32.3098 15.1072 -6.65476 -3.24811 -84.2644 15.9942
lowerback 42.3277 -1.19195 2.30241
upperback 10.2346 -2.00684 -1.30569
thorax -8.74089 -1.42565 -1.66271
lowerneck 3.19738 -0.402661 0.806144
upperneck -28.2168 -0.394974 3.87611
head -9.37312 -1.13945 1.31723
rclavicle -2.18663e-014 -7.45443e-015
rhumerus -28.9946 2.06981 -87.8244
rradius 43.3668
rwrist -2.93062
rhand -19.4517 -8.26299
rfingers 7.12502
rthumb 6.86916 -38.1316
lclavicle -2.18663e-014 -7.45443e-015
lhumerus -28.2133 -2.21748 83.0851
lradius 40.9756
lwrist 26.1953
lhand -18.755 12.163
lfingers 7.12502
lthumb 7.54161 42.0086
rfemur -62.2387 -4.59793 25.3268
rtibia 87.5886
rfoot 8.05176 -14.5728
rtoes -9.68701
lfemur -71.0495 9.96338 -29.5017
ltibia 64.5922
lfoot 3.40459 -6.008
ltoes -23.7286
520
root 32.2077 15.1258 -6.64669 -3.65402 -84.3313 16.5703
lowerback 42.2392 -1.1662 2.27722
upperback 10.2162 -1.98413 -1.31584
thorax -8.73494 -1.41327 -1.67171
lowerneck 3.20167 -0.401592 0.812013
upperneck -28.278 -0.402769 3.84327
head -9.39596 -1.14318 1.30704
rclavicle -1.10325e-014 8.29926e-015
rhumerus -28.9974 2.12662 -87.89
rradius 43.3956
rwrist -2.97525
rhand -19.5339 -8.1441
rfingers 7.12502
rthumb 6.7898 -38.0152
lclavicle -1.10325e-014 8.29926e-015
lhumerus -28.2655 -2.2649 83.101
lradius 40.9239
lwrist 26.0768
lhand -18.7334 12.175
lfingers 7.12502
lthumb 7.56251 42.0198
rfemur -61.9726 -4.61916 25.2389
rtibia 87.4993
rfoot 8.20974 -14.5095
rtoes -10.038
lfemur -70.9685 10.095 -30.0574
ltibia 62.127
lfoot 4.6735 -6.02968
ltoes -23.9308
521
root 32.1041 15.1448 -6.63715 -4.04727 -84.4075 17.1382
lowerback 42.1442 -1.14376 2.25674
upperback 10.2001 -1.96401 -1.32738
thorax -8.72461 -1.40212 -1.68365
lowerneck 3.20612 -0.398365 0.818788
upperneck -28.3482 -0.409501 3.80392
head -9.42217 -1.14629 1.29456
rclavicle 5.46658e-015 4.96962e-016
rhumerus -28.9947 2.18736 -87.955
rradius 43.4272
rwrist -3.02331
rhand -19.6026 -8.05502
rfingers 7.12502
rthumb 6.72349 -37.9283
lclavicle 5.46658e-015 4.96962e-016
lhumerus -28.3152 -2.30478 83.1132
lradius 40.8734
lwrist 25.9439
lhand -18.699 12.183
lfingers 7.12502
lthumb 7.59565 42.0266
rfemur -61.6984 -4.63385 25.1253
rtibia 87.3974
rfoot 8.40829 -14.3708
rtoes -10.4254
lfemur -70.8631 10.2554 -30.6164
ltibia 59.7205
lfoot 6.2215 -6.06151
ltoes -24.0771
522
root 31.9991 15.1643 -6.62631 -4.41018 -84.4945 17.6758
lowerback 42.0447 -1.12247 2.23914
upperback 10.1876 -1.94454 -1.33802
thorax -8.70888 -1.39145 -1.69593
lowerneck 3.21129 -0.390574 0.823563
upperneck -28.4247 -0.411374 3.75998
head -9.45089 -1.14672 1.28055
rclavicle -6.75868e-015 -5.1684e-015
rhumerus -28.9851 2.24634 -88.0153
rradius 43.4593
rwrist -3.06827
rhand -19.6336 -8.00252
rfingers 7.12502
rthumb 6.69358 -37.8767
lclavicle -6.75868e-015 -5.1684e-015
lhumerus -28.3604 -2.33131 83.1219
lradius 40.8242
lwrist 25.8132
lhand -18.6507 12.1886
lfingers 7.12502
lthumb 7.64233 42.0306
rfemur -61.4115 -4.64121 24.9906
rtibia 87.282
rfoot 8.64592 -14.1669
rtoes -10.7404
lfemur -70.7393 10.4411 -31.1705
ltibia 57.4022
lfoot 8.03994 -6.07697
ltoes -24.0127
523
root 31.8925 15.1839 -6.61409 -4.74912 -84.5925 18.1881
lowerback 41.9411 -1.10278 2.22424
upperback 10.1762 -1.92623 -1.34896
thorax -8.6906 -1.3814 -1.70951
lowerneck 3.2176 -0.376015 0.830209
upperneck -28.5013 -0.405269 3.70811
head -9.48008 -1.14271 1.26274
rclavicle -1.77912e-014 -8.89561e-015
rhumerus -28.9728 2.30312 -88.0723
rradius 43.4859
rwrist -3.10813
rhand -19.6382 -7.98304
rfingers 7.12502
rthumb 6.68914 -37.8574
lclavicle -1.77912e-014 -8.89561e-015
lhumerus -28.407 -2.34781 83.128
lradius 40.7742
lwrist 25.6912
lhand -18.6113 12.205
lfingers 7.12502
lthumb 7.68036 42.0455
rfemur -61.1128 -4.64825 24.8386
rtibia 87.1551
rfoot 8.9275 -13.9029
rtoes -10.9745
lfemur -70.6049 10.6469 -31.7215
ltibia 55.2029
lfoot 10.0702 -6.07405
ltoes -23.8577
